<mxfile host="app.diagrams.net" agent="Mozilla/5.0 (Windows NT 10.0; Win64; x64) AppleWebKit/537.36 (KHTML, like Gecko) Chrome/138.0.0.0 Safari/537.36" version="28.0.7">
  <diagram name="Page-1" id="UG3h2oHKd8cI5t2Z76ql">
    <mxGraphModel dx="2753" dy="1629" grid="1" gridSize="10" guides="1" tooltips="1" connect="1" arrows="1" fold="1" page="1" pageScale="1" pageWidth="850" pageHeight="1100" math="0" shadow="0">
      <root>
        <mxCell id="0" />
        <mxCell id="1" parent="0" />
        <mxCell id="Gwfefa4xqPAHv9ycmTIK-1" value="Products" style="rounded=0;whiteSpace=wrap;html=1;fontStyle=1;fillColor=#d5e8d4;strokeColor=#82b366;" parent="1" vertex="1">
          <mxGeometry x="230" y="240" width="160" height="80" as="geometry" />
        </mxCell>
        <mxCell id="Gwfefa4xqPAHv9ycmTIK-2" value="CoverageTypes" style="rounded=0;whiteSpace=wrap;html=1;fillColor=#d5e8d4;strokeColor=#82b366;" parent="1" vertex="1">
          <mxGeometry x="425" y="510" width="120" height="60" as="geometry" />
        </mxCell>
        <mxCell id="Gwfefa4xqPAHv9ycmTIK-4" style="edgeStyle=orthogonalEdgeStyle;rounded=0;orthogonalLoop=1;jettySize=auto;html=1;endArrow=ERone;endFill=0;startArrow=ERzeroToMany;startFill=0;" parent="1" source="Gwfefa4xqPAHv9ycmTIK-3" target="Gwfefa4xqPAHv9ycmTIK-2" edge="1">
          <mxGeometry relative="1" as="geometry">
            <Array as="points">
              <mxPoint x="520" y="470" />
              <mxPoint x="520" y="470" />
            </Array>
          </mxGeometry>
        </mxCell>
        <mxCell id="Gwfefa4xqPAHv9ycmTIK-18" style="edgeStyle=orthogonalEdgeStyle;rounded=0;orthogonalLoop=1;jettySize=auto;html=1;endArrow=ERone;endFill=0;startArrow=ERzeroToMany;startFill=0;" parent="1" source="Gwfefa4xqPAHv9ycmTIK-3" target="Gwfefa4xqPAHv9ycmTIK-1" edge="1">
          <mxGeometry relative="1" as="geometry">
            <Array as="points">
              <mxPoint x="530" y="280" />
            </Array>
          </mxGeometry>
        </mxCell>
        <mxCell id="Gwfefa4xqPAHv9ycmTIK-20" style="edgeStyle=orthogonalEdgeStyle;rounded=0;orthogonalLoop=1;jettySize=auto;html=1;startArrow=ERone;startFill=0;endArrow=ERzeroToOne;endFill=0;" parent="1" source="Gwfefa4xqPAHv9ycmTIK-3" target="Gwfefa4xqPAHv9ycmTIK-19" edge="1">
          <mxGeometry relative="1" as="geometry">
            <Array as="points">
              <mxPoint x="570" y="250" />
            </Array>
          </mxGeometry>
        </mxCell>
        <mxCell id="Gwfefa4xqPAHv9ycmTIK-3" value="CoverageAvailabilities" style="rounded=0;whiteSpace=wrap;html=1;fillColor=#d5e8d4;strokeColor=#82b366;" parent="1" vertex="1">
          <mxGeometry x="490" y="360" width="160" height="60" as="geometry" />
        </mxCell>
        <mxCell id="Gwfefa4xqPAHv9ycmTIK-13" style="edgeStyle=orthogonalEdgeStyle;rounded=0;orthogonalLoop=1;jettySize=auto;html=1;startArrow=ERmandOne;startFill=0;endArrow=ERzeroToOne;endFill=0;" parent="1" source="Gwfefa4xqPAHv9ycmTIK-5" target="Gwfefa4xqPAHv9ycmTIK-8" edge="1">
          <mxGeometry relative="1" as="geometry">
            <Array as="points">
              <mxPoint x="610" y="620" />
              <mxPoint x="540" y="620" />
            </Array>
          </mxGeometry>
        </mxCell>
        <mxCell id="Gwfefa4xqPAHv9ycmTIK-5" value="CoverageLevels" style="rounded=0;whiteSpace=wrap;html=1;fillColor=#d5e8d4;strokeColor=#82b366;" parent="1" vertex="1">
          <mxGeometry x="590" y="510" width="120" height="60" as="geometry" />
        </mxCell>
        <mxCell id="Gwfefa4xqPAHv9ycmTIK-6" style="edgeStyle=orthogonalEdgeStyle;rounded=0;orthogonalLoop=1;jettySize=auto;html=1;endArrow=ERone;endFill=0;startArrow=ERzeroToMany;startFill=0;" parent="1" source="Gwfefa4xqPAHv9ycmTIK-3" target="Gwfefa4xqPAHv9ycmTIK-5" edge="1">
          <mxGeometry relative="1" as="geometry">
            <mxPoint x="640" y="450" as="sourcePoint" />
            <mxPoint x="640" y="550" as="targetPoint" />
            <Array as="points">
              <mxPoint x="620" y="470" />
              <mxPoint x="620" y="470" />
            </Array>
          </mxGeometry>
        </mxCell>
        <mxCell id="Gwfefa4xqPAHv9ycmTIK-8" value="CoverageAmounts" style="rounded=0;whiteSpace=wrap;html=1;fillColor=#d5e8d4;strokeColor=#82b366;" parent="1" vertex="1">
          <mxGeometry x="480" y="640" width="120" height="60" as="geometry" />
        </mxCell>
        <mxCell id="Gwfefa4xqPAHv9ycmTIK-9" value="CoverageRanges" style="rounded=0;whiteSpace=wrap;html=1;fillColor=#d5e8d4;strokeColor=#82b366;" parent="1" vertex="1">
          <mxGeometry x="610" y="640" width="120" height="60" as="geometry" />
        </mxCell>
        <mxCell id="Gwfefa4xqPAHv9ycmTIK-10" value="Deductbilities" style="rounded=0;whiteSpace=wrap;html=1;fillColor=#d5e8d4;strokeColor=#82b366;" parent="1" vertex="1">
          <mxGeometry x="740" y="640" width="120" height="60" as="geometry" />
        </mxCell>
        <mxCell id="Gwfefa4xqPAHv9ycmTIK-11" value="Copays" style="rounded=0;whiteSpace=wrap;html=1;fillColor=#d5e8d4;strokeColor=#82b366;" parent="1" vertex="1">
          <mxGeometry x="870" y="640" width="120" height="60" as="geometry" />
        </mxCell>
        <mxCell id="Gwfefa4xqPAHv9ycmTIK-12" value="Coinsurances" style="rounded=0;whiteSpace=wrap;html=1;fillColor=#d5e8d4;strokeColor=#82b366;" parent="1" vertex="1">
          <mxGeometry x="1000" y="640" width="120" height="60" as="geometry" />
        </mxCell>
        <mxCell id="Gwfefa4xqPAHv9ycmTIK-14" style="edgeStyle=orthogonalEdgeStyle;rounded=0;orthogonalLoop=1;jettySize=auto;html=1;startArrow=ERmandOne;startFill=0;endArrow=ERzeroToOne;endFill=0;" parent="1" source="Gwfefa4xqPAHv9ycmTIK-5" target="Gwfefa4xqPAHv9ycmTIK-9" edge="1">
          <mxGeometry relative="1" as="geometry">
            <mxPoint x="900" y="590" as="sourcePoint" />
            <mxPoint x="790" y="650" as="targetPoint" />
            <Array as="points">
              <mxPoint x="630" y="620" />
              <mxPoint x="670" y="620" />
            </Array>
          </mxGeometry>
        </mxCell>
        <mxCell id="Gwfefa4xqPAHv9ycmTIK-15" style="edgeStyle=orthogonalEdgeStyle;rounded=0;orthogonalLoop=1;jettySize=auto;html=1;startArrow=ERmandOne;startFill=0;endArrow=ERzeroToOne;endFill=0;" parent="1" source="Gwfefa4xqPAHv9ycmTIK-5" target="Gwfefa4xqPAHv9ycmTIK-10" edge="1">
          <mxGeometry relative="1" as="geometry">
            <mxPoint x="760" y="590" as="sourcePoint" />
            <mxPoint x="790" y="650" as="targetPoint" />
            <Array as="points">
              <mxPoint x="650" y="610" />
              <mxPoint x="790" y="610" />
            </Array>
          </mxGeometry>
        </mxCell>
        <mxCell id="Gwfefa4xqPAHv9ycmTIK-16" style="edgeStyle=orthogonalEdgeStyle;rounded=0;orthogonalLoop=1;jettySize=auto;html=1;startArrow=ERmandOne;startFill=0;endArrow=ERzeroToOne;endFill=0;" parent="1" source="Gwfefa4xqPAHv9ycmTIK-5" target="Gwfefa4xqPAHv9ycmTIK-11" edge="1">
          <mxGeometry relative="1" as="geometry">
            <mxPoint x="800" y="570" as="sourcePoint" />
            <mxPoint x="940" y="630" as="targetPoint" />
            <Array as="points">
              <mxPoint x="670" y="600" />
              <mxPoint x="930" y="600" />
            </Array>
          </mxGeometry>
        </mxCell>
        <mxCell id="Gwfefa4xqPAHv9ycmTIK-17" style="edgeStyle=orthogonalEdgeStyle;rounded=0;orthogonalLoop=1;jettySize=auto;html=1;startArrow=ERmandOne;startFill=0;endArrow=ERzeroToOne;endFill=0;" parent="1" source="Gwfefa4xqPAHv9ycmTIK-5" target="Gwfefa4xqPAHv9ycmTIK-12" edge="1">
          <mxGeometry relative="1" as="geometry">
            <mxPoint x="880" y="560" as="sourcePoint" />
            <mxPoint x="1020" y="620" as="targetPoint" />
            <Array as="points">
              <mxPoint x="1070" y="540" />
            </Array>
          </mxGeometry>
        </mxCell>
        <mxCell id="Gwfefa4xqPAHv9ycmTIK-19" value="RequiredCoverages" style="rounded=0;whiteSpace=wrap;html=1;fillColor=#d5e8d4;strokeColor=#82b366;" parent="1" vertex="1">
          <mxGeometry x="710" y="210" width="160" height="60" as="geometry" />
        </mxCell>
        <mxCell id="Gwfefa4xqPAHv9ycmTIK-21" value="StandardCoverages" style="rounded=0;whiteSpace=wrap;html=1;fillColor=#d5e8d4;strokeColor=#82b366;" parent="1" vertex="1">
          <mxGeometry x="710" y="280" width="160" height="60" as="geometry" />
        </mxCell>
        <mxCell id="Gwfefa4xqPAHv9ycmTIK-22" value="OptionalCoverages" style="rounded=0;whiteSpace=wrap;html=1;fillColor=#d5e8d4;strokeColor=#82b366;" parent="1" vertex="1">
          <mxGeometry x="710" y="350" width="160" height="60" as="geometry" />
        </mxCell>
        <mxCell id="Gwfefa4xqPAHv9ycmTIK-23" value="SelectableCoverages" style="rounded=0;whiteSpace=wrap;html=1;fillColor=#d5e8d4;strokeColor=#82b366;" parent="1" vertex="1">
          <mxGeometry x="710" y="430" width="160" height="60" as="geometry" />
        </mxCell>
        <mxCell id="Gwfefa4xqPAHv9ycmTIK-24" style="edgeStyle=orthogonalEdgeStyle;rounded=0;orthogonalLoop=1;jettySize=auto;html=1;startArrow=ERone;startFill=0;endArrow=ERzeroToOne;endFill=0;" parent="1" source="Gwfefa4xqPAHv9ycmTIK-3" target="Gwfefa4xqPAHv9ycmTIK-21" edge="1">
          <mxGeometry relative="1" as="geometry">
            <mxPoint x="920" y="430" as="sourcePoint" />
            <mxPoint x="1060" y="320" as="targetPoint" />
            <Array as="points">
              <mxPoint x="610" y="320" />
            </Array>
          </mxGeometry>
        </mxCell>
        <mxCell id="Gwfefa4xqPAHv9ycmTIK-25" style="edgeStyle=orthogonalEdgeStyle;rounded=0;orthogonalLoop=1;jettySize=auto;html=1;startArrow=ERone;startFill=0;endArrow=ERzeroToOne;endFill=0;" parent="1" source="Gwfefa4xqPAHv9ycmTIK-3" target="Gwfefa4xqPAHv9ycmTIK-22" edge="1">
          <mxGeometry relative="1" as="geometry">
            <mxPoint x="930" y="450" as="sourcePoint" />
            <mxPoint x="1030" y="410" as="targetPoint" />
            <Array as="points">
              <mxPoint x="670" y="380" />
              <mxPoint x="670" y="380" />
            </Array>
          </mxGeometry>
        </mxCell>
        <mxCell id="Gwfefa4xqPAHv9ycmTIK-26" style="edgeStyle=orthogonalEdgeStyle;rounded=0;orthogonalLoop=1;jettySize=auto;html=1;startArrow=ERone;startFill=0;endArrow=ERzeroToOne;endFill=0;" parent="1" source="Gwfefa4xqPAHv9ycmTIK-3" target="Gwfefa4xqPAHv9ycmTIK-23" edge="1">
          <mxGeometry relative="1" as="geometry">
            <mxPoint x="670" y="440" as="sourcePoint" />
            <mxPoint x="730" y="440" as="targetPoint" />
            <Array as="points">
              <mxPoint x="680" y="400" />
              <mxPoint x="680" y="460" />
            </Array>
          </mxGeometry>
        </mxCell>
        <mxCell id="Gwfefa4xqPAHv9ycmTIK-28" value="from" style="edgeStyle=orthogonalEdgeStyle;rounded=0;orthogonalLoop=1;jettySize=auto;html=1;endArrow=ERone;endFill=0;startArrow=ERzeroToMany;startFill=0;" parent="1" source="Gwfefa4xqPAHv9ycmTIK-27" target="Gwfefa4xqPAHv9ycmTIK-2" edge="1">
          <mxGeometry relative="1" as="geometry">
            <Array as="points">
              <mxPoint x="390" y="530" />
              <mxPoint x="390" y="530" />
            </Array>
          </mxGeometry>
        </mxCell>
        <mxCell id="Gwfefa4xqPAHv9ycmTIK-27" value="CoverageTypeCompositions" style="rounded=0;whiteSpace=wrap;html=1;fillColor=#d5e8d4;strokeColor=#82b366;" parent="1" vertex="1">
          <mxGeometry x="170" y="510" width="180" height="60" as="geometry" />
        </mxCell>
        <mxCell id="Gwfefa4xqPAHv9ycmTIK-29" value="to" style="edgeStyle=orthogonalEdgeStyle;rounded=0;orthogonalLoop=1;jettySize=auto;html=1;endArrow=ERone;endFill=0;startArrow=ERzeroToMany;startFill=0;" parent="1" source="Gwfefa4xqPAHv9ycmTIK-27" target="Gwfefa4xqPAHv9ycmTIK-2" edge="1">
          <mxGeometry relative="1" as="geometry">
            <mxPoint x="370" y="570" as="sourcePoint" />
            <mxPoint x="480" y="570" as="targetPoint" />
            <Array as="points">
              <mxPoint x="370" y="550" />
              <mxPoint x="370" y="550" />
            </Array>
          </mxGeometry>
        </mxCell>
        <mxCell id="Gwfefa4xqPAHv9ycmTIK-31" style="edgeStyle=orthogonalEdgeStyle;rounded=0;orthogonalLoop=1;jettySize=auto;html=1;endArrow=ERone;endFill=0;startArrow=ERzeroToMany;startFill=0;" parent="1" source="Gwfefa4xqPAHv9ycmTIK-30" target="Gwfefa4xqPAHv9ycmTIK-1" edge="1">
          <mxGeometry relative="1" as="geometry">
            <Array as="points">
              <mxPoint x="10" y="280" />
            </Array>
          </mxGeometry>
        </mxCell>
        <mxCell id="Gwfefa4xqPAHv9ycmTIK-33" style="edgeStyle=orthogonalEdgeStyle;rounded=0;orthogonalLoop=1;jettySize=auto;html=1;endArrow=ERone;endFill=0;startArrow=ERzeroToMany;startFill=0;" parent="1" source="Gwfefa4xqPAHv9ycmTIK-30" target="Gwfefa4xqPAHv9ycmTIK-32" edge="1">
          <mxGeometry relative="1" as="geometry" />
        </mxCell>
        <mxCell id="Gwfefa4xqPAHv9ycmTIK-30" value="ProductCatagoryClassifications" style="rounded=0;whiteSpace=wrap;html=1;fillColor=#d5e8d4;strokeColor=#82b366;" parent="1" vertex="1">
          <mxGeometry x="-50" y="250" width="200" height="60" as="geometry" />
        </mxCell>
        <mxCell id="Gwfefa4xqPAHv9ycmTIK-32" value="ProductCatagories" style="rounded=0;whiteSpace=wrap;html=1;fillColor=#d5e8d4;strokeColor=#82b366;" parent="1" vertex="1">
          <mxGeometry x="-350" y="250" width="200" height="60" as="geometry" />
        </mxCell>
        <mxCell id="Gwfefa4xqPAHv9ycmTIK-35" style="rounded=0;orthogonalLoop=1;jettySize=auto;html=1;dashed=1;endArrow=none;endFill=0;" parent="1" source="Gwfefa4xqPAHv9ycmTIK-34" target="Gwfefa4xqPAHv9ycmTIK-32" edge="1">
          <mxGeometry relative="1" as="geometry" />
        </mxCell>
        <mxCell id="Gwfefa4xqPAHv9ycmTIK-34" value="Property&lt;div style=&quot;&quot;&gt;&lt;ul&gt;&lt;li&gt;Home&lt;/li&gt;&lt;li&gt;Motor&lt;/li&gt;&lt;/ul&gt;&lt;/div&gt;&lt;div&gt;Health&lt;/div&gt;&lt;div&gt;&lt;ul&gt;&lt;li&gt;Individual&lt;/li&gt;&lt;li&gt;Group&lt;/li&gt;&lt;/ul&gt;&lt;div&gt;Travel&lt;/div&gt;&lt;/div&gt;&lt;div&gt;&lt;br&gt;&lt;/div&gt;" style="shape=document;whiteSpace=wrap;html=1;boundedLbl=1;align=left;verticalAlign=middle;" parent="1" vertex="1">
          <mxGeometry x="-670" y="180" width="220" height="260" as="geometry" />
        </mxCell>
        <mxCell id="Gwfefa4xqPAHv9ycmTIK-39" style="edgeStyle=orthogonalEdgeStyle;rounded=0;orthogonalLoop=1;jettySize=auto;html=1;endArrow=ERone;endFill=0;startArrow=ERzeroToMany;startFill=0;" parent="1" source="Gwfefa4xqPAHv9ycmTIK-38" target="Gwfefa4xqPAHv9ycmTIK-1" edge="1">
          <mxGeometry relative="1" as="geometry">
            <Array as="points">
              <mxPoint x="310" y="380" />
            </Array>
          </mxGeometry>
        </mxCell>
        <mxCell id="Gwfefa4xqPAHv9ycmTIK-43" style="edgeStyle=orthogonalEdgeStyle;rounded=0;orthogonalLoop=1;jettySize=auto;html=1;startArrow=ERzeroToMany;startFill=0;endArrow=ERone;endFill=0;" parent="1" source="Gwfefa4xqPAHv9ycmTIK-38" target="Gwfefa4xqPAHv9ycmTIK-40" edge="1">
          <mxGeometry relative="1" as="geometry">
            <Array as="points">
              <mxPoint x="-10" y="450" />
              <mxPoint x="-10" y="450" />
            </Array>
          </mxGeometry>
        </mxCell>
        <mxCell id="Gwfefa4xqPAHv9ycmTIK-38" value="ProductFeatureCoverages" style="rounded=0;whiteSpace=wrap;html=1;fillColor=#d5e8d4;strokeColor=#82b366;" parent="1" vertex="1">
          <mxGeometry x="-120" y="360" width="200" height="60" as="geometry" />
        </mxCell>
        <mxCell id="Gwfefa4xqPAHv9ycmTIK-42" style="edgeStyle=orthogonalEdgeStyle;rounded=0;orthogonalLoop=1;jettySize=auto;html=1;startArrow=ERone;startFill=0;endArrow=ERzeroToMany;endFill=0;" parent="1" source="Gwfefa4xqPAHv9ycmTIK-40" target="Gwfefa4xqPAHv9ycmTIK-41" edge="1">
          <mxGeometry relative="1" as="geometry" />
        </mxCell>
        <mxCell id="Gwfefa4xqPAHv9ycmTIK-40" value="ProductFeatures" style="rounded=0;whiteSpace=wrap;html=1;fillColor=#d5e8d4;strokeColor=#82b366;" parent="1" vertex="1">
          <mxGeometry x="-110" y="510" width="200" height="60" as="geometry" />
        </mxCell>
        <mxCell id="Gwfefa4xqPAHv9ycmTIK-41" value="PriceComponents" style="rounded=0;whiteSpace=wrap;html=1;fillColor=#d5e8d4;strokeColor=#82b366;" parent="1" vertex="1">
          <mxGeometry x="-110" y="640" width="200" height="60" as="geometry" />
        </mxCell>
        <mxCell id="Gwfefa4xqPAHv9ycmTIK-44" style="edgeStyle=orthogonalEdgeStyle;rounded=0;orthogonalLoop=1;jettySize=auto;html=1;endArrow=ERone;endFill=0;startArrow=ERzeroToMany;startFill=0;" parent="1" source="Gwfefa4xqPAHv9ycmTIK-38" target="Gwfefa4xqPAHv9ycmTIK-2" edge="1">
          <mxGeometry relative="1" as="geometry">
            <mxPoint x="260" y="530" as="sourcePoint" />
            <mxPoint x="490" y="470" as="targetPoint" />
            <Array as="points">
              <mxPoint x="460" y="400" />
            </Array>
          </mxGeometry>
        </mxCell>
        <mxCell id="Gwfefa4xqPAHv9ycmTIK-45" value="MotorFeatures" style="rounded=0;whiteSpace=wrap;html=1;fillColor=#d5e8d4;strokeColor=#82b366;" parent="1" vertex="1">
          <mxGeometry x="-400" y="430" width="200" height="60" as="geometry" />
        </mxCell>
        <mxCell id="Gwfefa4xqPAHv9ycmTIK-46" value="PaFeatures" style="rounded=0;whiteSpace=wrap;html=1;fillColor=#d5e8d4;strokeColor=#82b366;" parent="1" vertex="1">
          <mxGeometry x="-400" y="500" width="200" height="60" as="geometry" />
        </mxCell>
        <mxCell id="Gwfefa4xqPAHv9ycmTIK-47" value="HomeFeatures" style="rounded=0;whiteSpace=wrap;html=1;fillColor=#d5e8d4;strokeColor=#82b366;" parent="1" vertex="1">
          <mxGeometry x="-400" y="570" width="200" height="60" as="geometry" />
        </mxCell>
        <mxCell id="Gwfefa4xqPAHv9ycmTIK-48" value="HealthFeatures" style="rounded=0;whiteSpace=wrap;html=1;fillColor=#d5e8d4;strokeColor=#82b366;" parent="1" vertex="1">
          <mxGeometry x="-400" y="640" width="200" height="60" as="geometry" />
        </mxCell>
        <mxCell id="Gwfefa4xqPAHv9ycmTIK-49" style="edgeStyle=orthogonalEdgeStyle;rounded=0;orthogonalLoop=1;jettySize=auto;html=1;startArrow=ERmandOne;startFill=0;endArrow=ERzeroToOne;endFill=0;" parent="1" source="Gwfefa4xqPAHv9ycmTIK-40" target="Gwfefa4xqPAHv9ycmTIK-45" edge="1">
          <mxGeometry relative="1" as="geometry">
            <mxPoint x="-60" y="450" as="sourcePoint" />
            <mxPoint x="-130" y="520" as="targetPoint" />
            <Array as="points">
              <mxPoint x="-140" y="520" />
              <mxPoint x="-140" y="460" />
            </Array>
          </mxGeometry>
        </mxCell>
        <mxCell id="Gwfefa4xqPAHv9ycmTIK-50" style="edgeStyle=orthogonalEdgeStyle;rounded=0;orthogonalLoop=1;jettySize=auto;html=1;startArrow=ERmandOne;startFill=0;endArrow=ERzeroToOne;endFill=0;" parent="1" source="Gwfefa4xqPAHv9ycmTIK-40" target="Gwfefa4xqPAHv9ycmTIK-46" edge="1">
          <mxGeometry relative="1" as="geometry">
            <mxPoint x="-10" y="610" as="sourcePoint" />
            <mxPoint x="-150" y="560" as="targetPoint" />
            <Array as="points">
              <mxPoint x="-140" y="530" />
              <mxPoint x="-140" y="530" />
            </Array>
          </mxGeometry>
        </mxCell>
        <mxCell id="Gwfefa4xqPAHv9ycmTIK-51" style="edgeStyle=orthogonalEdgeStyle;rounded=0;orthogonalLoop=1;jettySize=auto;html=1;startArrow=ERmandOne;startFill=0;endArrow=ERzeroToOne;endFill=0;" parent="1" source="Gwfefa4xqPAHv9ycmTIK-40" target="Gwfefa4xqPAHv9ycmTIK-47" edge="1">
          <mxGeometry relative="1" as="geometry">
            <mxPoint x="-10" y="630" as="sourcePoint" />
            <mxPoint x="-150" y="580" as="targetPoint" />
            <Array as="points">
              <mxPoint x="-170" y="540" />
              <mxPoint x="-170" y="600" />
            </Array>
          </mxGeometry>
        </mxCell>
        <mxCell id="Gwfefa4xqPAHv9ycmTIK-52" style="edgeStyle=orthogonalEdgeStyle;rounded=0;orthogonalLoop=1;jettySize=auto;html=1;startArrow=ERmandOne;startFill=0;endArrow=ERzeroToOne;endFill=0;" parent="1" source="Gwfefa4xqPAHv9ycmTIK-40" target="Gwfefa4xqPAHv9ycmTIK-48" edge="1">
          <mxGeometry relative="1" as="geometry">
            <mxPoint x="10" y="660" as="sourcePoint" />
            <mxPoint x="-130" y="610" as="targetPoint" />
            <Array as="points">
              <mxPoint x="-140" y="550" />
              <mxPoint x="-140" y="670" />
            </Array>
          </mxGeometry>
        </mxCell>
        <mxCell id="Gwfefa4xqPAHv9ycmTIK-54" style="edgeStyle=orthogonalEdgeStyle;rounded=0;orthogonalLoop=1;jettySize=auto;html=1;endArrow=open;endFill=0;startArrow=none;startFill=0;dashed=1;" parent="1" source="oErXkipmvM2q--g5pRgf-3" target="Gwfefa4xqPAHv9ycmTIK-1" edge="1">
          <mxGeometry relative="1" as="geometry">
            <Array as="points">
              <mxPoint x="310" y="60" />
            </Array>
          </mxGeometry>
        </mxCell>
        <mxCell id="oErXkipmvM2q--g5pRgf-4" style="edgeStyle=orthogonalEdgeStyle;rounded=0;orthogonalLoop=1;jettySize=auto;html=1;endArrow=ERzeroToMany;endFill=0;startArrow=ERone;startFill=0;" parent="1" source="Gwfefa4xqPAHv9ycmTIK-53" target="oErXkipmvM2q--g5pRgf-3" edge="1">
          <mxGeometry relative="1" as="geometry" />
        </mxCell>
        <mxCell id="Gwfefa4xqPAHv9ycmTIK-53" value="Agreements" style="rounded=0;whiteSpace=wrap;html=1;fillColor=#e1d5e7;strokeColor=#9673a6;" parent="1" vertex="1">
          <mxGeometry x="915" y="-100" width="190" height="60" as="geometry" />
        </mxCell>
        <mxCell id="Gwfefa4xqPAHv9ycmTIK-56" style="edgeStyle=orthogonalEdgeStyle;rounded=0;orthogonalLoop=1;jettySize=auto;html=1;endArrow=ERone;endFill=0;startArrow=ERzeroToMany;startFill=0;" parent="1" source="Gwfefa4xqPAHv9ycmTIK-55" target="Gwfefa4xqPAHv9ycmTIK-53" edge="1">
          <mxGeometry relative="1" as="geometry" />
        </mxCell>
        <mxCell id="Gwfefa4xqPAHv9ycmTIK-55" value="AgreementRoles" style="rounded=0;whiteSpace=wrap;html=1;fillColor=#e1d5e7;strokeColor=#9673a6;" parent="1" vertex="1">
          <mxGeometry x="915" y="-250" width="190" height="60" as="geometry" />
        </mxCell>
        <mxCell id="Gwfefa4xqPAHv9ycmTIK-57" value="&lt;div&gt;&amp;lt;&amp;lt;schema&amp;gt;&amp;gt;&lt;/div&gt;Parties" style="rounded=0;whiteSpace=wrap;html=1;fontStyle=1;fillColor=#dae8fc;strokeColor=#6c8ebf;" parent="1" vertex="1">
          <mxGeometry x="1320" y="970" width="200" height="110" as="geometry" />
        </mxCell>
        <mxCell id="Gwfefa4xqPAHv9ycmTIK-59" style="edgeStyle=orthogonalEdgeStyle;rounded=0;orthogonalLoop=1;jettySize=auto;html=1;startArrow=ERzeroToOne;startFill=0;endArrow=ERone;endFill=0;" parent="1" source="Gwfefa4xqPAHv9ycmTIK-58" target="Gwfefa4xqPAHv9ycmTIK-53" edge="1">
          <mxGeometry relative="1" as="geometry" />
        </mxCell>
        <mxCell id="Gwfefa4xqPAHv9ycmTIK-58" value="Policies" style="rounded=0;whiteSpace=wrap;html=1;fillColor=#e1d5e7;strokeColor=#9673a6;" parent="1" vertex="1">
          <mxGeometry x="620" y="-100" width="190" height="60" as="geometry" />
        </mxCell>
        <mxCell id="Gwfefa4xqPAHv9ycmTIK-60" style="edgeStyle=orthogonalEdgeStyle;rounded=0;orthogonalLoop=1;jettySize=auto;html=1;endArrow=open;endFill=0;startArrow=none;startFill=0;dashed=1;" parent="1" source="Gwfefa4xqPAHv9ycmTIK-55" target="Gwfefa4xqPAHv9ycmTIK-57" edge="1">
          <mxGeometry relative="1" as="geometry">
            <mxPoint x="650" y="-150" as="sourcePoint" />
            <mxPoint x="650" y="-50" as="targetPoint" />
            <Array as="points">
              <mxPoint x="1060" y="-140" />
              <mxPoint x="1420" y="-140" />
            </Array>
          </mxGeometry>
        </mxCell>
        <mxCell id="Gwfefa4xqPAHv9ycmTIK-64" style="edgeStyle=orthogonalEdgeStyle;rounded=0;orthogonalLoop=1;jettySize=auto;html=1;startArrow=none;startFill=0;endArrow=open;endFill=0;dashed=1;" parent="1" source="Gwfefa4xqPAHv9ycmTIK-63" target="Gwfefa4xqPAHv9ycmTIK-58" edge="1">
          <mxGeometry relative="1" as="geometry">
            <Array as="points">
              <mxPoint x="80" y="-70" />
            </Array>
          </mxGeometry>
        </mxCell>
        <mxCell id="Gwfefa4xqPAHv9ycmTIK-63" value="Claims" style="rounded=0;whiteSpace=wrap;html=1;fillColor=#ffe6cc;strokeColor=#d79b00;fontStyle=1" parent="1" vertex="1">
          <mxGeometry x="-60" y="-160" width="190" height="60" as="geometry" />
        </mxCell>
        <mxCell id="Gwfefa4xqPAHv9ycmTIK-66" style="edgeStyle=orthogonalEdgeStyle;rounded=0;orthogonalLoop=1;jettySize=auto;html=1;startArrow=ERzeroToMany;startFill=0;endArrow=ERone;endFill=0;" parent="1" source="Gwfefa4xqPAHv9ycmTIK-65" target="Gwfefa4xqPAHv9ycmTIK-63" edge="1">
          <mxGeometry relative="1" as="geometry" />
        </mxCell>
        <mxCell id="Gwfefa4xqPAHv9ycmTIK-65" value="ClaimItems" style="rounded=0;whiteSpace=wrap;html=1;fillColor=#ffe6cc;strokeColor=#d79b00;" parent="1" vertex="1">
          <mxGeometry x="-60" y="-330" width="190" height="60" as="geometry" />
        </mxCell>
        <mxCell id="Gwfefa4xqPAHv9ycmTIK-68" style="edgeStyle=orthogonalEdgeStyle;rounded=0;orthogonalLoop=1;jettySize=auto;html=1;startArrow=ERzeroToMany;startFill=0;endArrow=ERone;endFill=0;" parent="1" source="Gwfefa4xqPAHv9ycmTIK-67" target="Gwfefa4xqPAHv9ycmTIK-63" edge="1">
          <mxGeometry relative="1" as="geometry" />
        </mxCell>
        <mxCell id="Gwfefa4xqPAHv9ycmTIK-70" style="edgeStyle=orthogonalEdgeStyle;rounded=0;orthogonalLoop=1;jettySize=auto;html=1;endArrow=ERone;endFill=0;startArrow=ERzeroToMany;startFill=0;" parent="1" source="Gwfefa4xqPAHv9ycmTIK-67" target="Gwfefa4xqPAHv9ycmTIK-69" edge="1">
          <mxGeometry relative="1" as="geometry" />
        </mxCell>
        <mxCell id="Gwfefa4xqPAHv9ycmTIK-67" value="ClaimStatuses" style="rounded=0;whiteSpace=wrap;html=1;fillColor=#ffe6cc;strokeColor=#d79b00;" parent="1" vertex="1">
          <mxGeometry x="-320" y="-160" width="190" height="60" as="geometry" />
        </mxCell>
        <mxCell id="Gwfefa4xqPAHv9ycmTIK-69" value="ClaimStatusTypes" style="rounded=0;whiteSpace=wrap;html=1;fillColor=#ffe6cc;strokeColor=#d79b00;" parent="1" vertex="1">
          <mxGeometry x="-590" y="-160" width="190" height="60" as="geometry" />
        </mxCell>
        <mxCell id="Gwfefa4xqPAHv9ycmTIK-71" value="InsuredAssets" style="rounded=0;whiteSpace=wrap;html=1;fillColor=#ffe6cc;strokeColor=#d79b00;" parent="1" vertex="1">
          <mxGeometry x="200" y="-570" width="190" height="60" as="geometry" />
        </mxCell>
        <mxCell id="Gwfefa4xqPAHv9ycmTIK-73" value="Incidents" style="rounded=0;whiteSpace=wrap;html=1;fillColor=#ffe6cc;strokeColor=#d79b00;" parent="1" vertex="1">
          <mxGeometry x="-300" y="-470" width="190" height="60" as="geometry" />
        </mxCell>
        <mxCell id="Gwfefa4xqPAHv9ycmTIK-80" style="edgeStyle=orthogonalEdgeStyle;rounded=0;orthogonalLoop=1;jettySize=auto;html=1;startArrow=ERzeroToOne;startFill=0;endArrow=ERone;endFill=0;" parent="1" source="Gwfefa4xqPAHv9ycmTIK-74" target="Gwfefa4xqPAHv9ycmTIK-73" edge="1">
          <mxGeometry relative="1" as="geometry" />
        </mxCell>
        <mxCell id="Gwfefa4xqPAHv9ycmTIK-74" value="PropertyDamages" style="rounded=0;whiteSpace=wrap;html=1;fillColor=#ffe6cc;strokeColor=#d79b00;" parent="1" vertex="1">
          <mxGeometry x="-580" y="-610" width="190" height="60" as="geometry" />
        </mxCell>
        <mxCell id="Gwfefa4xqPAHv9ycmTIK-81" style="edgeStyle=orthogonalEdgeStyle;rounded=0;orthogonalLoop=1;jettySize=auto;html=1;startArrow=ERzeroToOne;startFill=0;endArrow=ERone;endFill=0;" parent="1" source="Gwfefa4xqPAHv9ycmTIK-75" target="Gwfefa4xqPAHv9ycmTIK-73" edge="1">
          <mxGeometry relative="1" as="geometry">
            <Array as="points">
              <mxPoint x="-240" y="-510" />
            </Array>
          </mxGeometry>
        </mxCell>
        <mxCell id="Gwfefa4xqPAHv9ycmTIK-75" value="PropertyLosses" style="rounded=0;whiteSpace=wrap;html=1;fillColor=#ffe6cc;strokeColor=#d79b00;" parent="1" vertex="1">
          <mxGeometry x="-580" y="-540" width="190" height="60" as="geometry" />
        </mxCell>
        <mxCell id="Gwfefa4xqPAHv9ycmTIK-82" style="edgeStyle=orthogonalEdgeStyle;rounded=0;orthogonalLoop=1;jettySize=auto;html=1;startArrow=ERzeroToOne;startFill=0;endArrow=ERone;endFill=0;" parent="1" source="Gwfefa4xqPAHv9ycmTIK-76" target="Gwfefa4xqPAHv9ycmTIK-73" edge="1">
          <mxGeometry relative="1" as="geometry">
            <Array as="points">
              <mxPoint x="-320" y="-440" />
              <mxPoint x="-320" y="-440" />
            </Array>
          </mxGeometry>
        </mxCell>
        <mxCell id="Gwfefa4xqPAHv9ycmTIK-76" value="PropertyThefts" style="rounded=0;whiteSpace=wrap;html=1;fillColor=#ffe6cc;strokeColor=#d79b00;" parent="1" vertex="1">
          <mxGeometry x="-580" y="-470" width="190" height="60" as="geometry" />
        </mxCell>
        <mxCell id="Gwfefa4xqPAHv9ycmTIK-83" style="edgeStyle=orthogonalEdgeStyle;rounded=0;orthogonalLoop=1;jettySize=auto;html=1;startArrow=ERzeroToOne;startFill=0;endArrow=ERone;endFill=0;" parent="1" source="Gwfefa4xqPAHv9ycmTIK-77" target="Gwfefa4xqPAHv9ycmTIK-73" edge="1">
          <mxGeometry relative="1" as="geometry">
            <Array as="points">
              <mxPoint x="-270" y="-370" />
            </Array>
          </mxGeometry>
        </mxCell>
        <mxCell id="Gwfefa4xqPAHv9ycmTIK-77" value="Accidents" style="rounded=0;whiteSpace=wrap;html=1;fillColor=#ffe6cc;strokeColor=#d79b00;" parent="1" vertex="1">
          <mxGeometry x="-580" y="-400" width="190" height="60" as="geometry" />
        </mxCell>
        <mxCell id="Gwfefa4xqPAHv9ycmTIK-84" style="edgeStyle=orthogonalEdgeStyle;rounded=0;orthogonalLoop=1;jettySize=auto;html=1;startArrow=ERzeroToOne;startFill=0;endArrow=ERone;endFill=0;" parent="1" source="Gwfefa4xqPAHv9ycmTIK-78" target="Gwfefa4xqPAHv9ycmTIK-73" edge="1">
          <mxGeometry relative="1" as="geometry">
            <Array as="points">
              <mxPoint x="-240" y="-320" />
            </Array>
          </mxGeometry>
        </mxCell>
        <mxCell id="Gwfefa4xqPAHv9ycmTIK-78" value="Illnesses" style="rounded=0;whiteSpace=wrap;html=1;fillColor=#ffe6cc;strokeColor=#d79b00;" parent="1" vertex="1">
          <mxGeometry x="-580" y="-330" width="190" height="60" as="geometry" />
        </mxCell>
        <mxCell id="Gwfefa4xqPAHv9ycmTIK-85" style="edgeStyle=orthogonalEdgeStyle;rounded=0;orthogonalLoop=1;jettySize=auto;html=1;endArrow=ERone;endFill=0;startArrow=ERzeroToOne;startFill=0;" parent="1" source="Gwfefa4xqPAHv9ycmTIK-79" target="Gwfefa4xqPAHv9ycmTIK-73" edge="1">
          <mxGeometry relative="1" as="geometry" />
        </mxCell>
        <mxCell id="Gwfefa4xqPAHv9ycmTIK-79" value="MotorVehicleIncidents" style="rounded=0;whiteSpace=wrap;html=1;fillColor=#ffe6cc;strokeColor=#d79b00;" parent="1" vertex="1">
          <mxGeometry x="-300" y="-310" width="190" height="60" as="geometry" />
        </mxCell>
        <mxCell id="Gwfefa4xqPAHv9ycmTIK-86" value="IncidentRoles" style="rounded=0;whiteSpace=wrap;html=1;fillColor=#ffe6cc;strokeColor=#d79b00;" parent="1" vertex="1">
          <mxGeometry x="-60" y="-660" width="190" height="60" as="geometry" />
        </mxCell>
        <mxCell id="Gwfefa4xqPAHv9ycmTIK-87" style="edgeStyle=orthogonalEdgeStyle;rounded=0;orthogonalLoop=1;jettySize=auto;html=1;endArrow=ERone;endFill=0;startArrow=ERzeroToMany;startFill=0;" parent="1" source="Gwfefa4xqPAHv9ycmTIK-86" target="Gwfefa4xqPAHv9ycmTIK-73" edge="1">
          <mxGeometry relative="1" as="geometry">
            <mxPoint x="240" y="-410" as="sourcePoint" />
            <mxPoint x="240" y="-320" as="targetPoint" />
            <Array as="points">
              <mxPoint x="-180" y="-630" />
            </Array>
          </mxGeometry>
        </mxCell>
        <mxCell id="Gwfefa4xqPAHv9ycmTIK-88" style="edgeStyle=orthogonalEdgeStyle;rounded=0;orthogonalLoop=1;jettySize=auto;html=1;endArrow=open;endFill=0;startArrow=none;startFill=0;dashed=1;" parent="1" source="Gwfefa4xqPAHv9ycmTIK-86" target="Gwfefa4xqPAHv9ycmTIK-57" edge="1">
          <mxGeometry relative="1" as="geometry">
            <mxPoint x="410" y="-430" as="sourcePoint" />
            <mxPoint x="1140" y="-560" as="targetPoint" />
            <Array as="points">
              <mxPoint x="1620" y="-630" />
              <mxPoint x="1620" y="1000" />
            </Array>
          </mxGeometry>
        </mxCell>
        <mxCell id="Gwfefa4xqPAHv9ycmTIK-89" value="AgreementRoleTypes" style="rounded=0;whiteSpace=wrap;html=1;fillColor=#e1d5e7;strokeColor=#9673a6;" parent="1" vertex="1">
          <mxGeometry x="1200" y="-250" width="190" height="60" as="geometry" />
        </mxCell>
        <mxCell id="Gwfefa4xqPAHv9ycmTIK-90" style="edgeStyle=orthogonalEdgeStyle;rounded=0;orthogonalLoop=1;jettySize=auto;html=1;endArrow=ERone;endFill=0;startArrow=ERoneToMany;startFill=0;" parent="1" source="Gwfefa4xqPAHv9ycmTIK-55" target="Gwfefa4xqPAHv9ycmTIK-89" edge="1">
          <mxGeometry relative="1" as="geometry">
            <mxPoint x="550" y="-70" as="sourcePoint" />
            <mxPoint x="550" y="20" as="targetPoint" />
          </mxGeometry>
        </mxCell>
        <mxCell id="Gwfefa4xqPAHv9ycmTIK-91" value="IncidentRoleTypes" style="rounded=0;whiteSpace=wrap;html=1;fillColor=#ffe6cc;strokeColor=#d79b00;" parent="1" vertex="1">
          <mxGeometry x="-60" y="-780" width="190" height="60" as="geometry" />
        </mxCell>
        <mxCell id="Gwfefa4xqPAHv9ycmTIK-92" style="edgeStyle=orthogonalEdgeStyle;rounded=0;orthogonalLoop=1;jettySize=auto;html=1;endArrow=ERone;endFill=0;startArrow=ERoneToMany;startFill=0;" parent="1" source="Gwfefa4xqPAHv9ycmTIK-86" target="Gwfefa4xqPAHv9ycmTIK-91" edge="1">
          <mxGeometry relative="1" as="geometry">
            <mxPoint x="360" y="-770" as="sourcePoint" />
            <mxPoint x="455" y="-770" as="targetPoint" />
          </mxGeometry>
        </mxCell>
        <mxCell id="Gwfefa4xqPAHv9ycmTIK-94" style="edgeStyle=orthogonalEdgeStyle;rounded=0;orthogonalLoop=1;jettySize=auto;html=1;endArrow=ERone;endFill=0;startArrow=ERzeroToMany;startFill=0;" parent="1" source="Gwfefa4xqPAHv9ycmTIK-93" target="Gwfefa4xqPAHv9ycmTIK-73" edge="1">
          <mxGeometry relative="1" as="geometry">
            <Array as="points">
              <mxPoint x="-140" y="-540" />
            </Array>
          </mxGeometry>
        </mxCell>
        <mxCell id="Gwfefa4xqPAHv9ycmTIK-95" style="edgeStyle=orthogonalEdgeStyle;rounded=0;orthogonalLoop=1;jettySize=auto;html=1;startArrow=ERzeroToMany;startFill=0;endArrow=ERone;endFill=0;" parent="1" source="Gwfefa4xqPAHv9ycmTIK-93" target="Gwfefa4xqPAHv9ycmTIK-71" edge="1">
          <mxGeometry relative="1" as="geometry" />
        </mxCell>
        <mxCell id="Gwfefa4xqPAHv9ycmTIK-93" value="IncidentPropertyDamages" style="rounded=0;whiteSpace=wrap;html=1;fillColor=#ffe6cc;strokeColor=#d79b00;" parent="1" vertex="1">
          <mxGeometry x="-60" y="-570" width="190" height="60" as="geometry" />
        </mxCell>
        <mxCell id="Gwfefa4xqPAHv9ycmTIK-97" style="edgeStyle=orthogonalEdgeStyle;rounded=0;orthogonalLoop=1;jettySize=auto;html=1;startArrow=ERzeroToMany;startFill=0;endArrow=ERone;endFill=0;" parent="1" source="Gwfefa4xqPAHv9ycmTIK-96" target="Gwfefa4xqPAHv9ycmTIK-73" edge="1">
          <mxGeometry relative="1" as="geometry" />
        </mxCell>
        <mxCell id="Gwfefa4xqPAHv9ycmTIK-98" style="edgeStyle=orthogonalEdgeStyle;rounded=0;orthogonalLoop=1;jettySize=auto;html=1;startArrow=ERzeroToMany;startFill=0;endArrow=ERone;endFill=0;" parent="1" source="Gwfefa4xqPAHv9ycmTIK-96" target="Gwfefa4xqPAHv9ycmTIK-65" edge="1">
          <mxGeometry relative="1" as="geometry">
            <Array as="points">
              <mxPoint x="35" y="-370" />
              <mxPoint x="35" y="-370" />
            </Array>
          </mxGeometry>
        </mxCell>
        <mxCell id="Gwfefa4xqPAHv9ycmTIK-96" value="IncidentClaimItems" style="rounded=0;whiteSpace=wrap;html=1;" parent="1" vertex="1">
          <mxGeometry x="-60" y="-470" width="190" height="60" as="geometry" />
        </mxCell>
        <mxCell id="Gwfefa4xqPAHv9ycmTIK-99" value="Documents" style="rounded=0;whiteSpace=wrap;html=1;fillColor=#ffe6cc;strokeColor=#d79b00;" parent="1" vertex="1">
          <mxGeometry x="500" y="-450" width="190" height="60" as="geometry" />
        </mxCell>
        <mxCell id="Gwfefa4xqPAHv9ycmTIK-101" style="edgeStyle=orthogonalEdgeStyle;rounded=0;orthogonalLoop=1;jettySize=auto;html=1;startArrow=ERzeroToMany;startFill=0;endArrow=ERone;endFill=0;" parent="1" source="Gwfefa4xqPAHv9ycmTIK-100" target="Gwfefa4xqPAHv9ycmTIK-99" edge="1">
          <mxGeometry relative="1" as="geometry" />
        </mxCell>
        <mxCell id="Gwfefa4xqPAHv9ycmTIK-102" style="edgeStyle=orthogonalEdgeStyle;rounded=0;orthogonalLoop=1;jettySize=auto;html=1;startArrow=ERzeroToMany;startFill=0;endArrow=ERone;endFill=0;" parent="1" source="Gwfefa4xqPAHv9ycmTIK-100" target="Gwfefa4xqPAHv9ycmTIK-65" edge="1">
          <mxGeometry relative="1" as="geometry">
            <Array as="points">
              <mxPoint x="280" y="-300" />
            </Array>
          </mxGeometry>
        </mxCell>
        <mxCell id="Gwfefa4xqPAHv9ycmTIK-100" value="ClaimItemDocuments" style="rounded=0;whiteSpace=wrap;html=1;fillColor=#ffe6cc;strokeColor=#d79b00;" parent="1" vertex="1">
          <mxGeometry x="230" y="-450" width="190" height="60" as="geometry" />
        </mxCell>
        <mxCell id="Gwfefa4xqPAHv9ycmTIK-103" value="DocumentsTypes" style="rounded=0;whiteSpace=wrap;html=1;fillColor=#ffe6cc;strokeColor=#d79b00;" parent="1" vertex="1">
          <mxGeometry x="500" y="-570" width="190" height="60" as="geometry" />
        </mxCell>
        <mxCell id="Gwfefa4xqPAHv9ycmTIK-104" style="edgeStyle=orthogonalEdgeStyle;rounded=0;orthogonalLoop=1;jettySize=auto;html=1;endArrow=ERone;endFill=0;startArrow=ERoneToMany;startFill=0;" parent="1" source="Gwfefa4xqPAHv9ycmTIK-99" target="Gwfefa4xqPAHv9ycmTIK-103" edge="1">
          <mxGeometry relative="1" as="geometry">
            <mxPoint x="430" y="-650" as="sourcePoint" />
            <mxPoint x="430" y="-710" as="targetPoint" />
          </mxGeometry>
        </mxCell>
        <mxCell id="Gwfefa4xqPAHv9ycmTIK-105" value="ClaimSettlements" style="rounded=0;whiteSpace=wrap;html=1;fillColor=#ffe6cc;strokeColor=#d79b00;fontStyle=1" parent="1" vertex="1">
          <mxGeometry x="-590" y="-250" width="190" height="60" as="geometry" />
        </mxCell>
        <mxCell id="Gwfefa4xqPAHv9ycmTIK-106" style="edgeStyle=orthogonalEdgeStyle;rounded=0;orthogonalLoop=1;jettySize=auto;html=1;startArrow=ERzeroToMany;startFill=0;endArrow=ERone;endFill=0;" parent="1" source="Gwfefa4xqPAHv9ycmTIK-105" target="Gwfefa4xqPAHv9ycmTIK-65" edge="1">
          <mxGeometry relative="1" as="geometry">
            <mxPoint x="-80" y="-210" as="sourcePoint" />
            <mxPoint x="-80" y="-100" as="targetPoint" />
            <Array as="points">
              <mxPoint y="-220" />
            </Array>
          </mxGeometry>
        </mxCell>
        <mxCell id="Gwfefa4xqPAHv9ycmTIK-108" style="edgeStyle=orthogonalEdgeStyle;rounded=0;orthogonalLoop=1;jettySize=auto;html=1;startArrow=ERzeroToMany;startFill=0;endArrow=ERone;endFill=0;" parent="1" source="Gwfefa4xqPAHv9ycmTIK-107" target="Gwfefa4xqPAHv9ycmTIK-105" edge="1">
          <mxGeometry relative="1" as="geometry">
            <Array as="points">
              <mxPoint x="-630" y="-230" />
              <mxPoint x="-630" y="-230" />
            </Array>
          </mxGeometry>
        </mxCell>
        <mxCell id="Gwfefa4xqPAHv9ycmTIK-109" style="edgeStyle=orthogonalEdgeStyle;rounded=0;orthogonalLoop=1;jettySize=auto;html=1;startArrow=none;startFill=0;endArrow=open;endFill=0;dashed=1;" parent="1" source="Gwfefa4xqPAHv9ycmTIK-107" target="Gwfefa4xqPAHv9ycmTIK-57" edge="1">
          <mxGeometry relative="1" as="geometry">
            <Array as="points">
              <mxPoint x="-840" y="-170" />
              <mxPoint x="-1230" y="-170" />
              <mxPoint x="-1230" y="1040" />
            </Array>
          </mxGeometry>
        </mxCell>
        <mxCell id="Gwfefa4xqPAHv9ycmTIK-107" value="ClaimSettlementRoles" style="rounded=0;whiteSpace=wrap;html=1;fillColor=#ffe6cc;strokeColor=#d79b00;" parent="1" vertex="1">
          <mxGeometry x="-880" y="-270" width="190" height="60" as="geometry" />
        </mxCell>
        <mxCell id="Gwfefa4xqPAHv9ycmTIK-111" style="edgeStyle=orthogonalEdgeStyle;rounded=0;orthogonalLoop=1;jettySize=auto;html=1;endArrow=ERone;endFill=0;startArrow=ERzeroToMany;startFill=0;" parent="1" source="Gwfefa4xqPAHv9ycmTIK-110" target="Gwfefa4xqPAHv9ycmTIK-105" edge="1">
          <mxGeometry relative="1" as="geometry">
            <Array as="points">
              <mxPoint x="-785" y="-200" />
            </Array>
          </mxGeometry>
        </mxCell>
        <mxCell id="Gwfefa4xqPAHv9ycmTIK-115" style="edgeStyle=orthogonalEdgeStyle;rounded=0;orthogonalLoop=1;jettySize=auto;html=1;startArrow=ERzeroToMany;startFill=0;endArrow=ERone;endFill=0;" parent="1" source="Gwfefa4xqPAHv9ycmTIK-110" target="Gwfefa4xqPAHv9ycmTIK-114" edge="1">
          <mxGeometry relative="1" as="geometry" />
        </mxCell>
        <mxCell id="Gwfefa4xqPAHv9ycmTIK-110" value="ClaimSettlementAmounts" style="rounded=0;whiteSpace=wrap;html=1;fillColor=#ffe6cc;strokeColor=#d79b00;" parent="1" vertex="1">
          <mxGeometry x="-880" y="-150" width="190" height="60" as="geometry" />
        </mxCell>
        <mxCell id="Gwfefa4xqPAHv9ycmTIK-113" style="edgeStyle=orthogonalEdgeStyle;rounded=0;orthogonalLoop=1;jettySize=auto;html=1;dashed=1;" parent="1" source="Gwfefa4xqPAHv9ycmTIK-112" target="Gwfefa4xqPAHv9ycmTIK-110" edge="1">
          <mxGeometry relative="1" as="geometry">
            <Array as="points">
              <mxPoint x="-820" y="10" />
            </Array>
          </mxGeometry>
        </mxCell>
        <mxCell id="Gwfefa4xqPAHv9ycmTIK-112" value="DeductibleAmount&lt;div&gt;DisallowedAmount&lt;/div&gt;&lt;div&gt;UsualAndCustomaryAmount&lt;/div&gt;&lt;div&gt;ClaimPaymentAmount&lt;/div&gt;" style="shape=note;whiteSpace=wrap;html=1;backgroundOutline=1;darkOpacity=0.05;" parent="1" vertex="1">
          <mxGeometry x="-1160" y="-40" width="230" height="100" as="geometry" />
        </mxCell>
        <mxCell id="oErXkipmvM2q--g5pRgf-2" style="edgeStyle=orthogonalEdgeStyle;rounded=0;orthogonalLoop=1;jettySize=auto;html=1;endArrow=open;endFill=0;dashed=1;startArrow=none;startFill=0;" parent="1" source="Gwfefa4xqPAHv9ycmTIK-114" target="oErXkipmvM2q--g5pRgf-1" edge="1">
          <mxGeometry relative="1" as="geometry">
            <Array as="points">
              <mxPoint x="-785" y="430" />
              <mxPoint x="-785" y="430" />
            </Array>
          </mxGeometry>
        </mxCell>
        <mxCell id="Gwfefa4xqPAHv9ycmTIK-114" value="ClaimBillings" style="rounded=0;whiteSpace=wrap;html=1;fillColor=#ffe6cc;strokeColor=#d79b00;" parent="1" vertex="1">
          <mxGeometry x="-880" y="40" width="190" height="60" as="geometry" />
        </mxCell>
        <mxCell id="Gwfefa4xqPAHv9ycmTIK-116" value="ClaimSettlementRoleTypes" style="rounded=0;whiteSpace=wrap;html=1;fillColor=#ffe6cc;strokeColor=#d79b00;" parent="1" vertex="1">
          <mxGeometry x="-1170" y="-270" width="190" height="60" as="geometry" />
        </mxCell>
        <mxCell id="Gwfefa4xqPAHv9ycmTIK-117" style="edgeStyle=orthogonalEdgeStyle;rounded=0;orthogonalLoop=1;jettySize=auto;html=1;endArrow=ERone;endFill=0;startArrow=ERzeroToMany;startFill=0;" parent="1" source="Gwfefa4xqPAHv9ycmTIK-107" target="Gwfefa4xqPAHv9ycmTIK-116" edge="1">
          <mxGeometry relative="1" as="geometry">
            <mxPoint x="-880" y="-370" as="sourcePoint" />
            <mxPoint x="-960" y="-370" as="targetPoint" />
          </mxGeometry>
        </mxCell>
        <mxCell id="Gwfefa4xqPAHv9ycmTIK-119" value="IncidentClaimItems" style="rounded=0;whiteSpace=wrap;html=1;fillColor=#ffe6cc;strokeColor=#d79b00;" parent="1" vertex="1">
          <mxGeometry x="-60" y="-470" width="190" height="60" as="geometry" />
        </mxCell>
        <mxCell id="oErXkipmvM2q--g5pRgf-9" value="acoount" style="edgeStyle=orthogonalEdgeStyle;rounded=0;orthogonalLoop=1;jettySize=auto;html=1;endArrow=open;endFill=0;startArrow=none;startFill=0;dashed=1;" parent="1" source="oErXkipmvM2q--g5pRgf-1" target="Gwfefa4xqPAHv9ycmTIK-57" edge="1">
          <mxGeometry x="-0.9892" y="40" relative="1" as="geometry">
            <Array as="points">
              <mxPoint x="-810" y="1010" />
            </Array>
            <mxPoint as="offset" />
          </mxGeometry>
        </mxCell>
        <mxCell id="oErXkipmvM2q--g5pRgf-1" value="&lt;div&gt;&amp;lt;&amp;lt;schema&amp;gt;&amp;gt;&lt;/div&gt;Invoices" style="rounded=0;whiteSpace=wrap;html=1;fontStyle=1;fillColor=#fff2cc;strokeColor=#d6b656;" parent="1" vertex="1">
          <mxGeometry x="-890" y="760" width="190" height="100" as="geometry" />
        </mxCell>
        <mxCell id="oErXkipmvM2q--g5pRgf-3" value="AgreementItems" style="rounded=0;whiteSpace=wrap;html=1;fillColor=#e1d5e7;strokeColor=#9673a6;" parent="1" vertex="1">
          <mxGeometry x="915" y="30" width="190" height="60" as="geometry" />
        </mxCell>
        <mxCell id="oErXkipmvM2q--g5pRgf-6" style="edgeStyle=orthogonalEdgeStyle;rounded=0;orthogonalLoop=1;jettySize=auto;html=1;dashed=1;endArrow=open;endFill=0;startArrow=none;startFill=0;" parent="1" source="oErXkipmvM2q--g5pRgf-5" target="Gwfefa4xqPAHv9ycmTIK-57" edge="1">
          <mxGeometry relative="1" as="geometry">
            <Array as="points">
              <mxPoint x="1970" y="1070" />
            </Array>
          </mxGeometry>
        </mxCell>
        <mxCell id="oErXkipmvM2q--g5pRgf-10" style="edgeStyle=orthogonalEdgeStyle;rounded=0;orthogonalLoop=1;jettySize=auto;html=1;endArrow=open;endFill=0;dashed=1;" parent="1" source="oErXkipmvM2q--g5pRgf-5" target="oErXkipmvM2q--g5pRgf-3" edge="1">
          <mxGeometry relative="1" as="geometry">
            <Array as="points">
              <mxPoint x="1870" y="60" />
            </Array>
          </mxGeometry>
        </mxCell>
        <mxCell id="oErXkipmvM2q--g5pRgf-5" value="&lt;div&gt;&amp;lt;&amp;lt;schema&amp;gt;&amp;gt;&lt;/div&gt;Orders" style="rounded=0;whiteSpace=wrap;html=1;fontStyle=1;fillColor=#f8cecc;strokeColor=#b85450;" parent="1" vertex="1">
          <mxGeometry x="1830" y="-495" width="200" height="110" as="geometry" />
        </mxCell>
        <mxCell id="oErXkipmvM2q--g5pRgf-7" style="edgeStyle=orthogonalEdgeStyle;rounded=0;orthogonalLoop=1;jettySize=auto;html=1;dashed=1;endArrow=open;endFill=0;startArrow=none;startFill=0;" parent="1" source="oErXkipmvM2q--g5pRgf-5" target="Gwfefa4xqPAHv9ycmTIK-1" edge="1">
          <mxGeometry relative="1" as="geometry">
            <mxPoint x="1580" y="400" as="sourcePoint" />
            <mxPoint x="1580" y="160" as="targetPoint" />
            <Array as="points">
              <mxPoint x="1900" y="150" />
              <mxPoint x="350" y="150" />
            </Array>
          </mxGeometry>
        </mxCell>
        <mxCell id="oErXkipmvM2q--g5pRgf-8" value="order billing" style="edgeStyle=orthogonalEdgeStyle;rounded=0;orthogonalLoop=1;jettySize=auto;html=1;dashed=1;endArrow=open;endFill=0;startArrow=none;startFill=0;" parent="1" source="oErXkipmvM2q--g5pRgf-5" target="oErXkipmvM2q--g5pRgf-1" edge="1">
          <mxGeometry x="-0.6837" y="-50" relative="1" as="geometry">
            <mxPoint x="2010" y="650" as="sourcePoint" />
            <mxPoint x="460" y="840" as="targetPoint" />
            <Array as="points">
              <mxPoint x="1930" y="810" />
            </Array>
            <mxPoint y="1" as="offset" />
          </mxGeometry>
        </mxCell>
        <mxCell id="oErXkipmvM2q--g5pRgf-12" value="regarding" style="edgeStyle=orthogonalEdgeStyle;rounded=0;orthogonalLoop=1;jettySize=auto;html=1;startArrow=ERzeroToMany;startFill=0;endArrow=ERone;endFill=0;" parent="1" source="oErXkipmvM2q--g5pRgf-11" target="Gwfefa4xqPAHv9ycmTIK-63" edge="1">
          <mxGeometry x="-0.2308" y="-10" relative="1" as="geometry">
            <Array as="points">
              <mxPoint x="210" y="-150" />
              <mxPoint x="210" y="-150" />
            </Array>
            <mxPoint as="offset" />
          </mxGeometry>
        </mxCell>
        <mxCell id="oErXkipmvM2q--g5pRgf-13" value="replace by" style="edgeStyle=orthogonalEdgeStyle;rounded=0;orthogonalLoop=1;jettySize=auto;html=1;startArrow=ERzeroToMany;startFill=0;endArrow=ERone;endFill=0;" parent="1" source="oErXkipmvM2q--g5pRgf-11" target="Gwfefa4xqPAHv9ycmTIK-63" edge="1">
          <mxGeometry x="-0.2308" y="10" relative="1" as="geometry">
            <Array as="points">
              <mxPoint x="190" y="-110" />
              <mxPoint x="190" y="-110" />
            </Array>
            <mxPoint as="offset" />
          </mxGeometry>
        </mxCell>
        <mxCell id="oErXkipmvM2q--g5pRgf-11" value="ClaimResubmissions" style="rounded=0;whiteSpace=wrap;html=1;fillColor=#ffe6cc;strokeColor=#d79b00;" parent="1" vertex="1">
          <mxGeometry x="260" y="-160" width="190" height="60" as="geometry" />
        </mxCell>
        <mxCell id="oErXkipmvM2q--g5pRgf-18" style="edgeStyle=orthogonalEdgeStyle;rounded=0;orthogonalLoop=1;jettySize=auto;html=1;dashed=1;endArrow=open;endFill=0;" parent="1" source="oErXkipmvM2q--g5pRgf-14" target="Gwfefa4xqPAHv9ycmTIK-57" edge="1">
          <mxGeometry relative="1" as="geometry">
            <Array as="points">
              <mxPoint x="35" y="120" />
              <mxPoint x="1390" y="120" />
            </Array>
          </mxGeometry>
        </mxCell>
        <mxCell id="oErXkipmvM2q--g5pRgf-14" value="ClaimRoles" style="rounded=0;whiteSpace=wrap;html=1;fillColor=#ffe6cc;strokeColor=#d79b00;" parent="1" vertex="1">
          <mxGeometry x="-60" y="-20" width="190" height="60" as="geometry" />
        </mxCell>
        <mxCell id="oErXkipmvM2q--g5pRgf-15" value="ClaimRoleTypes" style="rounded=0;whiteSpace=wrap;html=1;fillColor=#ffe6cc;strokeColor=#d79b00;" parent="1" vertex="1">
          <mxGeometry x="-340" y="-20" width="190" height="60" as="geometry" />
        </mxCell>
        <mxCell id="oErXkipmvM2q--g5pRgf-16" style="edgeStyle=orthogonalEdgeStyle;rounded=0;orthogonalLoop=1;jettySize=auto;html=1;startArrow=ERzeroToMany;startFill=0;endArrow=ERone;endFill=0;" parent="1" source="oErXkipmvM2q--g5pRgf-14" target="oErXkipmvM2q--g5pRgf-15" edge="1">
          <mxGeometry relative="1" as="geometry">
            <mxPoint x="-100" y="-10" as="sourcePoint" />
            <mxPoint x="-30" y="-10" as="targetPoint" />
          </mxGeometry>
        </mxCell>
        <mxCell id="oErXkipmvM2q--g5pRgf-17" style="edgeStyle=orthogonalEdgeStyle;rounded=0;orthogonalLoop=1;jettySize=auto;html=1;startArrow=ERzeroToMany;startFill=0;endArrow=ERone;endFill=0;" parent="1" source="oErXkipmvM2q--g5pRgf-14" target="Gwfefa4xqPAHv9ycmTIK-63" edge="1">
          <mxGeometry relative="1" as="geometry">
            <mxPoint x="120" y="-70" as="sourcePoint" />
            <mxPoint x="30" y="-70" as="targetPoint" />
          </mxGeometry>
        </mxCell>
        <mxCell id="oErXkipmvM2q--g5pRgf-21" value="UnitOfMeasures" style="rounded=0;whiteSpace=wrap;html=1;fillColor=#ffe6cc;strokeColor=#d79b00;" parent="1" vertex="1">
          <mxGeometry x="230" y="-260" width="190" height="60" as="geometry" />
        </mxCell>
        <mxCell id="oErXkipmvM2q--g5pRgf-22" style="edgeStyle=orthogonalEdgeStyle;rounded=0;orthogonalLoop=1;jettySize=auto;html=1;startArrow=ERzeroToMany;startFill=0;endArrow=ERone;endFill=0;" parent="1" source="Gwfefa4xqPAHv9ycmTIK-65" target="oErXkipmvM2q--g5pRgf-21" edge="1">
          <mxGeometry relative="1" as="geometry">
            <mxPoint x="130" y="-230" as="sourcePoint" />
            <mxPoint x="130" y="-120" as="targetPoint" />
            <Array as="points">
              <mxPoint x="80" y="-230" />
            </Array>
          </mxGeometry>
        </mxCell>
        <mxCell id="RdjfbKBckpWRO-hU6VDz-3" style="edgeStyle=orthogonalEdgeStyle;rounded=0;orthogonalLoop=1;jettySize=auto;html=1;endArrow=ERzeroToMany;endFill=0;startArrow=ERone;startFill=0;" edge="1" parent="1" source="RdjfbKBckpWRO-hU6VDz-1" target="RdjfbKBckpWRO-hU6VDz-2">
          <mxGeometry relative="1" as="geometry" />
        </mxCell>
        <mxCell id="RdjfbKBckpWRO-hU6VDz-1" value="&lt;div&gt;&lt;span style=&quot;background-color: transparent; color: light-dark(rgb(0, 0, 0), rgb(255, 255, 255));&quot;&gt;Invoices&lt;/span&gt;&lt;/div&gt;" style="rounded=0;whiteSpace=wrap;html=1;fontStyle=1;fillColor=#fff2cc;strokeColor=#d6b656;" vertex="1" parent="1">
          <mxGeometry x="-1075" y="1620" width="160" height="80" as="geometry" />
        </mxCell>
        <mxCell id="RdjfbKBckpWRO-hU6VDz-2" value="&lt;div&gt;&lt;span style=&quot;background-color: transparent; color: light-dark(rgb(0, 0, 0), rgb(255, 255, 255));&quot;&gt;InvoiceItems&lt;/span&gt;&lt;/div&gt;" style="rounded=0;whiteSpace=wrap;html=1;fontStyle=0;fillColor=#fff2cc;strokeColor=#d6b656;" vertex="1" parent="1">
          <mxGeometry x="-1070" y="1420" width="150" height="80" as="geometry" />
        </mxCell>
      </root>
    </mxGraphModel>
  </diagram>
</mxfile>
